<svg width="131" height="193" viewBox="0 0 131 193" fill="none" xmlns="http://www.w3.org/2000/svg">
<path d="M64.7224 59.5111C71.6983 59.4517 78.6235 60.7002 85.1394 63.1921C80.3474 39.1361 72.9564 24.4231 64.6824 24.4341H64.6734C56.4014 24.4501 49.0524 39.1781 44.3214 63.2401C50.8288 60.7339 57.7482 59.469 64.7214 59.5111H64.7224Z" fill="url(#paint0_linear_1_27)"/>
<path d="M65.2074 173.214L54.6794 173.228C57.3354 189.709 61.0904 192.792 65.2414 192.786C69.3924 192.78 73.1214 189.686 75.7414 173.201L65.2074 173.214Z" fill="url(#paint1_linear_1_27)"/>
<path d="M90.8054 126.343C90.3744 114.03 89.5224 101.09 88.1254 87.5921C87.4094 80.6741 86.5911 73.9407 85.6704 67.392C72.1966 62.1871 57.2641 62.2046 43.8024 67.441C42.9044 74.0524 42.1044 80.849 41.4024 87.831C40.0424 101.431 39.2224 114.473 38.8184 126.889C27.1884 135.489 19.1584 151.801 19.1854 173.2L38.5124 173.175C42.0484 173.175 44.1534 172.275 44.1534 168.668L44.1414 168.6L64.8634 168.574L86.2634 168.547C86.2634 172.366 88.2854 173.113 91.8364 173.108L111.236 173.084C111.206 151.276 102.818 134.684 90.8054 126.343ZM64.7394 73.684C66.3288 73.6819 67.8832 74.1511 69.2059 75.0323C70.5287 75.9135 71.5604 77.1673 72.1706 78.6349C72.7808 80.1025 72.9421 81.7181 72.6341 83.2774C72.3261 84.8366 71.5626 86.2696 70.4401 87.3949C69.3177 88.5203 67.8868 89.2875 66.3283 89.5996C64.7698 89.9117 63.1538 89.7546 61.6846 89.1482C60.2154 88.5419 58.9591 87.5134 58.0744 86.193C57.1897 84.8726 56.7164 83.3195 56.7144 81.7301C56.712 79.599 57.5561 77.5543 59.061 76.0455C60.5659 74.5366 62.6084 73.6872 64.7394 73.684ZM64.7734 99.8631C66.3626 99.8611 67.9167 100.33 69.2391 101.212C70.5616 102.093 71.593 103.346 72.203 104.814C72.8129 106.281 72.9741 107.897 72.666 109.456C72.3579 111.015 71.5944 112.447 70.4721 113.572C69.3498 114.698 67.919 115.465 66.3608 115.777C64.8025 116.089 63.1867 115.931 61.7178 115.325C60.2488 114.719 58.9926 113.691 58.1081 112.37C57.2236 111.05 56.7504 109.497 56.7484 107.908C56.746 105.777 57.5901 103.732 59.095 102.224C60.6 100.715 62.6425 99.866 64.7734 99.8631ZM64.8274 142.113C63.2382 142.115 61.6842 141.646 60.3617 140.764C59.0393 139.883 58.0078 138.63 57.3979 137.162C56.7879 135.695 56.6268 134.079 56.9349 132.52C57.243 130.961 58.0065 129.529 59.1288 128.403C60.2511 127.278 61.6818 126.511 63.2401 126.199C64.7983 125.887 66.4141 126.044 67.883 126.651C69.352 127.257 70.6082 128.285 71.4927 129.606C72.3773 130.926 72.8505 132.479 72.8524 134.068C72.8537 135.123 72.6472 136.168 72.2446 137.144C71.8419 138.119 71.2511 139.006 70.5058 139.753C69.7605 140.5 68.8754 141.093 67.9009 141.498C66.9264 141.903 65.8817 142.113 64.8264 142.114L64.8274 142.113Z" fill="url(#paint2_linear_1_27)"/>
<path d="M64.7484 77.0351C63.5178 77.0546 62.3444 77.5575 61.4816 78.4351C60.6188 79.3128 60.136 80.4947 60.1376 81.7255C60.1392 82.9562 60.625 84.1369 61.49 85.0124C62.355 85.8878 63.5298 86.3877 64.7604 86.4041C66.0028 86.4025 67.1937 85.9074 68.0711 85.0278C68.9485 84.1481 69.4405 82.956 69.4389 81.7136C69.4373 80.4712 68.9422 79.2802 68.0626 78.4029C67.183 77.5255 65.9908 77.0335 64.7484 77.0351Z" fill="url(#paint3_linear_1_27)"/>
<path d="M64.7824 103.214H64.7734C63.5428 103.233 62.3693 103.736 61.5065 104.614C60.6438 105.492 60.161 106.674 60.1626 107.904C60.1642 109.135 60.6499 110.316 61.515 111.191C62.38 112.067 63.5548 112.567 64.7854 112.583C66.0279 112.582 67.219 112.087 68.0967 111.207C68.9744 110.328 69.4667 109.135 69.4654 107.893C69.464 106.65 68.9692 105.459 68.0896 104.582C67.2101 103.704 66.0179 103.212 64.7754 103.213L64.7824 103.214Z" fill="url(#paint4_linear_1_27)"/>
<path d="M64.8154 129.394H64.8104C63.5798 129.413 62.4063 129.916 61.5436 130.794C60.6808 131.672 60.198 132.854 60.1996 134.084C60.2011 135.315 60.687 136.496 61.552 137.371C62.417 138.247 63.5918 138.747 64.8224 138.763C66.0648 138.761 67.2557 138.267 68.1332 137.387C69.0107 136.507 69.5028 135.315 69.5014 134.073C69.4999 132.831 69.005 131.64 68.1254 130.762C67.2459 129.885 66.0538 129.393 64.8114 129.394H64.8154Z" fill="url(#paint5_linear_1_27)"/>
<path d="M90.1084 62.6381C86.1484 42.7631 78.5214 19.0631 64.6674 19.0631H64.5304C53.4604 19.1921 44.9754 33.8721 39.3084 62.6971L39.2964 62.7591L37.7124 71.7731C37.0714 75.8501 36.5014 80.0821 36.0124 84.3891C35.9151 85.2458 35.8207 86.1091 35.7294 86.9791C35.1234 92.7571 34.6464 98.8251 34.3064 105.055C32.5914 103.732 30.9618 102.302 29.4274 100.773C22.156 93.5111 17.2783 84.1998 15.4482 74.0874C13.6181 63.975 14.923 53.5448 19.1881 44.195C23.4531 34.8451 30.4744 27.0225 39.3107 21.7757C48.147 16.5289 58.3761 14.1088 68.6268 14.8396C78.8774 15.5704 88.6597 19.4173 96.6623 25.8646C104.665 32.312 110.505 41.0515 113.4 50.9119C116.296 60.7722 116.108 71.2821 112.862 81.0325C109.615 90.783 103.466 99.3081 95.2384 105.465C94.8824 99.0751 94.3794 92.8441 93.7384 86.9061C93.6444 86.0394 93.548 85.1761 93.4494 84.3161C92.9494 80.0161 92.3734 75.7831 91.7214 71.7161L90.1084 62.6381Z" fill="url(#paint6_linear_1_27)"/>
<path d="M64.9864 0.0020423C50.5966 0.0408217 36.6242 4.84175 25.2496 13.6557C13.8749 22.4697 5.73771 34.8009 2.10757 48.7254C-1.52256 62.6499 -0.44143 77.3844 5.18231 90.6299C10.806 103.875 20.656 114.887 33.1954 121.946C33.3287 119.233 33.4767 116.55 33.6394 113.899C26.0552 108.998 19.7127 102.403 15.1114 94.6331C9.91141 85.8229 7.13366 75.7943 7.05994 65.5642C6.98622 55.3342 9.61915 45.2666 14.6917 36.3824C19.7642 27.4982 27.0959 20.1135 35.9433 14.977C44.7907 9.84058 54.8391 7.1352 65.0694 7.1352C75.2997 7.1352 85.3481 9.84058 94.1955 14.977C103.042 20.1135 110.374 27.4982 115.447 36.3824C120.519 45.2666 123.152 55.3342 123.078 65.5642C123.005 75.7943 120.227 85.8229 115.027 94.6331C110.305 102.607 103.751 109.34 95.9074 114.276C96.0701 116.914 96.2204 119.578 96.3584 122.269C109.049 115.316 119.064 104.335 124.822 91.0594C130.58 77.7832 131.754 62.9677 128.157 48.9507C124.561 34.9337 116.399 22.5133 104.96 13.6496C93.5221 4.7858 79.4575 -0.0166543 64.9864 4.33954e-05V0.0020423Z" fill="url(#paint7_linear_1_27)"/>
<defs>
<linearGradient id="paint0_linear_1_27" x1="64.7304" y1="189.825" x2="64.7304" y2="61.8043" gradientUnits="userSpaceOnUse">
<stop stop-color="#1153FC"/>
<stop offset="1" stop-color="#5581F1"/>
</linearGradient>
<linearGradient id="paint1_linear_1_27" x1="65.2104" y1="189.848" x2="65.2104" y2="61.8209" gradientUnits="userSpaceOnUse">
<stop stop-color="#1153FC"/>
<stop offset="1" stop-color="#5581F1"/>
</linearGradient>
<linearGradient id="paint2_linear_1_27" x1="65.2109" y1="189.874" x2="65.2109" y2="61.8555" gradientUnits="userSpaceOnUse">
<stop stop-color="#1153FC"/>
<stop offset="1" stop-color="#5581F1"/>
</linearGradient>
<linearGradient id="paint3_linear_1_27" x1="64.7883" y1="189.838" x2="64.7883" y2="61.8104" gradientUnits="userSpaceOnUse">
<stop stop-color="#1153FC"/>
<stop offset="1" stop-color="#5581F1"/>
</linearGradient>
<linearGradient id="paint4_linear_1_27" x1="64.814" y1="189.839" x2="64.814" y2="61.8164" gradientUnits="userSpaceOnUse">
<stop stop-color="#1153FC"/>
<stop offset="1" stop-color="#5581F1"/>
</linearGradient>
<linearGradient id="paint5_linear_1_27" x1="64.8505" y1="189.843" x2="64.8505" y2="61.8154" gradientUnits="userSpaceOnUse">
<stop stop-color="#1153FC"/>
<stop offset="1" stop-color="#5581F1"/>
</linearGradient>
<linearGradient id="paint6_linear_1_27" x1="65.0426" y1="189.775" x2="65.0426" y2="61.8128" gradientUnits="userSpaceOnUse">
<stop stop-color="#1153FC"/>
<stop offset="1" stop-color="#5581F1"/>
</linearGradient>
<linearGradient id="paint7_linear_1_27" x1="65.1008" y1="189.884" x2="65.1008" y2="61.8682" gradientUnits="userSpaceOnUse">
<stop stop-color="#1153FC"/>
<stop offset="1" stop-color="#5581F1"/>
</linearGradient>
</defs>
</svg>
